<svg width="35" height="27" viewBox="0 0 35 27" fill="none" xmlns="http://www.w3.org/2000/svg">
<path d="M26.6003 11.4492H24.1914V24.2061L25.7263 25.29C26.4443 25.822 27.333 26.1365 28.2952 26.1365C30.681 26.1365 32.615 24.2025 32.615 21.8167C32.615 20.8976 32.3484 20.0331 31.8591 19.3329L26.6003 11.4492Z" fill="#FF505E"/>
<path d="M10.5849 24.0501V12.0938H7.5459L2.72187 19.3416C2.23244 20.0419 1.94531 20.8941 1.94531 21.8133C1.94531 24.1991 3.87936 26.1331 6.26511 26.1331C7.22742 26.1331 8.11621 25.8184 8.83426 25.2864L10.5849 24.0501Z" fill="#02E4FC"/>
<path d="M24.8392 8.80638V10.1504H9.50391V9.15091L14.2128 2.07612C14.789 0.97007 15.9461 0.214844 17.2795 0.214844C18.5917 0.214844 19.7331 0.946156 20.3183 2.02342C20.3223 2.0308 20.3489 2.07475 20.3489 2.07475L24.8392 8.80638Z" fill="#B362E8"/>
<path d="M23.1099 23.4404L18.2069 19.9778C17.4942 19.4379 16.7382 19.6538 16.3495 19.9778L11.2305 23.5929V10.1719H23.1099V23.4404Z" fill="#381D51"/>
<path d="M11.7699 23.2133V15.8649C11.7699 15.0824 12.1235 14.3417 12.732 13.8496L17.2777 10.1733C17.2777 10.1733 14.4852 8.04974 13.9106 7.63293C13.3423 7.22064 11.8783 6.44531 10.2571 8.01813L6.91016 13.0467V21.9235C6.91016 23.2953 8.02223 24.4073 9.39404 24.4073C9.57833 24.4073 9.93733 24.3724 10.312 24.2429L11.7699 23.2133Z" fill="#423ED3"/>
<path d="M24.3331 8.05257C22.6979 6.43409 21.2169 7.21766 20.6444 7.63293C20.0698 8.04974 17.2773 10.1733 17.2773 10.1733L21.8231 13.8496C22.4315 14.3417 22.7851 15.0824 22.7851 15.8649V23.2133L24.243 24.2429C24.6177 24.3724 24.9767 24.4073 25.161 24.4073C26.5328 24.4073 27.6449 23.2953 27.6449 21.9235V13.0174L24.3331 8.05257Z" fill="#B10459"/>
</svg>
